<mxfile host="Electron" agent="Mozilla/5.0 (Windows NT 10.0; Win64; x64) AppleWebKit/537.36 (KHTML, like Gecko) draw.io/27.0.9 Chrome/134.0.6998.205 Electron/35.4.0 Safari/537.36" version="27.0.9">
  <diagram name="Page-1" id="lzGx5Lrmnf9STPlNXoNQ">
    <mxGraphModel dx="1489" dy="943" grid="1" gridSize="5" guides="1" tooltips="1" connect="1" arrows="1" fold="1" page="1" pageScale="1" pageWidth="850" pageHeight="1100" math="0" shadow="0">
      <root>
        <mxCell id="0" />
        <mxCell id="1" parent="0" />
        <mxCell id="h6leBs1KQF8J1EOXkiDZ-1" value="" style="rounded=0;whiteSpace=wrap;html=1;fillColor=none;dashed=1;" parent="1" vertex="1">
          <mxGeometry x="100" y="350" width="210" height="510" as="geometry" />
        </mxCell>
        <mxCell id="h6leBs1KQF8J1EOXkiDZ-3" value="Sources" style="rounded=0;whiteSpace=wrap;html=1;dashed=1;strokeColor=none;fontSize=22;" parent="1" vertex="1">
          <mxGeometry x="130" y="330" width="150" height="40" as="geometry" />
        </mxCell>
        <mxCell id="h6leBs1KQF8J1EOXkiDZ-4" value="" style="rounded=1;whiteSpace=wrap;html=1;fillStyle=hatch;fillColor=none;fontColor=#ffffff;strokeColor=#FFB570;" parent="1" vertex="1">
          <mxGeometry x="380" y="270" width="320" height="650" as="geometry" />
        </mxCell>
        <mxCell id="h6leBs1KQF8J1EOXkiDZ-5" value="Bronze Layer" style="rounded=0;whiteSpace=wrap;html=1;fillColor=#FFB570;fontColor=#000000;fontSize=20;" parent="1" vertex="1">
          <mxGeometry x="380" y="190" width="320" height="60" as="geometry" />
        </mxCell>
        <mxCell id="irCyjuHKOvBO2fOeoZhY-9" style="edgeStyle=orthogonalEdgeStyle;rounded=0;orthogonalLoop=1;jettySize=auto;html=1;strokeWidth=4;" parent="1" source="h6leBs1KQF8J1EOXkiDZ-6" target="irCyjuHKOvBO2fOeoZhY-3" edge="1">
          <mxGeometry relative="1" as="geometry" />
        </mxCell>
        <mxCell id="h6leBs1KQF8J1EOXkiDZ-6" value="&lt;font color=&quot;#ba0000&quot;&gt;crm_cust_info&lt;/font&gt;" style="rounded=0;whiteSpace=wrap;html=1;fillColor=#FFB570;fontFamily=Verdana;fontSize=17;" parent="1" vertex="1">
          <mxGeometry x="400" y="300" width="280" height="60" as="geometry" />
        </mxCell>
        <mxCell id="irCyjuHKOvBO2fOeoZhY-10" style="edgeStyle=orthogonalEdgeStyle;rounded=0;orthogonalLoop=1;jettySize=auto;html=1;strokeWidth=4;" parent="1" edge="1">
          <mxGeometry relative="1" as="geometry">
            <mxPoint x="680" y="419" as="sourcePoint" />
            <mxPoint x="820" y="419" as="targetPoint" />
          </mxGeometry>
        </mxCell>
        <mxCell id="h6leBs1KQF8J1EOXkiDZ-7" value="&lt;font color=&quot;#ba0000&quot;&gt;crm_prd_info&lt;/font&gt;" style="rounded=0;whiteSpace=wrap;html=1;fillColor=#FFB570;fontFamily=Verdana;fontSize=17;" parent="1" vertex="1">
          <mxGeometry x="400" y="390" width="280" height="60" as="geometry" />
        </mxCell>
        <mxCell id="irCyjuHKOvBO2fOeoZhY-11" style="edgeStyle=orthogonalEdgeStyle;rounded=0;orthogonalLoop=1;jettySize=auto;html=1;strokeWidth=4;" parent="1" source="h6leBs1KQF8J1EOXkiDZ-8" target="irCyjuHKOvBO2fOeoZhY-5" edge="1">
          <mxGeometry relative="1" as="geometry" />
        </mxCell>
        <mxCell id="h6leBs1KQF8J1EOXkiDZ-8" value="&lt;font color=&quot;#ba0000&quot;&gt;crm_sales_details&lt;/font&gt;" style="rounded=0;whiteSpace=wrap;html=1;fillColor=#FFB570;fontFamily=Verdana;fontSize=17;" parent="1" vertex="1">
          <mxGeometry x="400" y="480" width="280" height="60" as="geometry" />
        </mxCell>
        <mxCell id="irCyjuHKOvBO2fOeoZhY-12" style="edgeStyle=orthogonalEdgeStyle;rounded=0;orthogonalLoop=1;jettySize=auto;html=1;entryX=0;entryY=0.5;entryDx=0;entryDy=0;strokeWidth=4;" parent="1" source="h6leBs1KQF8J1EOXkiDZ-9" target="irCyjuHKOvBO2fOeoZhY-6" edge="1">
          <mxGeometry relative="1" as="geometry" />
        </mxCell>
        <mxCell id="h6leBs1KQF8J1EOXkiDZ-9" value="&lt;font color=&quot;#ba0000&quot;&gt;erp_cust_az12&lt;/font&gt;" style="rounded=0;whiteSpace=wrap;html=1;fillColor=#FFB570;fontFamily=Verdana;fontSize=17;" parent="1" vertex="1">
          <mxGeometry x="400" y="600" width="280" height="60" as="geometry" />
        </mxCell>
        <mxCell id="irCyjuHKOvBO2fOeoZhY-13" style="edgeStyle=orthogonalEdgeStyle;rounded=0;orthogonalLoop=1;jettySize=auto;html=1;entryX=0;entryY=0.5;entryDx=0;entryDy=0;strokeWidth=4;" parent="1" source="h6leBs1KQF8J1EOXkiDZ-10" target="irCyjuHKOvBO2fOeoZhY-7" edge="1">
          <mxGeometry relative="1" as="geometry" />
        </mxCell>
        <mxCell id="h6leBs1KQF8J1EOXkiDZ-10" value="&lt;font color=&quot;#ba0000&quot;&gt;erp_loc_a101&lt;/font&gt;" style="rounded=0;whiteSpace=wrap;html=1;fillColor=#FFB570;fontFamily=Verdana;fontSize=17;" parent="1" vertex="1">
          <mxGeometry x="400" y="680" width="280" height="60" as="geometry" />
        </mxCell>
        <mxCell id="irCyjuHKOvBO2fOeoZhY-14" style="edgeStyle=orthogonalEdgeStyle;rounded=0;orthogonalLoop=1;jettySize=auto;html=1;entryX=0;entryY=0.5;entryDx=0;entryDy=0;strokeWidth=4;" parent="1" source="h6leBs1KQF8J1EOXkiDZ-12" target="irCyjuHKOvBO2fOeoZhY-8" edge="1">
          <mxGeometry relative="1" as="geometry" />
        </mxCell>
        <mxCell id="h6leBs1KQF8J1EOXkiDZ-12" value="&lt;font color=&quot;#ba0000&quot;&gt;erp_px_cat_g1v2&lt;/font&gt;" style="rounded=0;whiteSpace=wrap;html=1;fillColor=#FFB570;fontFamily=Verdana;fontSize=17;" parent="1" vertex="1">
          <mxGeometry x="400" y="760" width="280" height="60" as="geometry" />
        </mxCell>
        <mxCell id="h6leBs1KQF8J1EOXkiDZ-18" style="edgeStyle=orthogonalEdgeStyle;rounded=0;orthogonalLoop=1;jettySize=auto;html=1;entryX=0;entryY=0.5;entryDx=0;entryDy=0;" parent="1" source="h6leBs1KQF8J1EOXkiDZ-13" target="h6leBs1KQF8J1EOXkiDZ-7" edge="1">
          <mxGeometry relative="1" as="geometry">
            <Array as="points">
              <mxPoint x="400" y="418" />
            </Array>
          </mxGeometry>
        </mxCell>
        <mxCell id="h6leBs1KQF8J1EOXkiDZ-20" style="edgeStyle=orthogonalEdgeStyle;rounded=0;orthogonalLoop=1;jettySize=auto;html=1;entryX=0;entryY=0.5;entryDx=0;entryDy=0;" parent="1" source="h6leBs1KQF8J1EOXkiDZ-13" target="h6leBs1KQF8J1EOXkiDZ-6" edge="1">
          <mxGeometry relative="1" as="geometry">
            <Array as="points">
              <mxPoint x="330" y="418" />
              <mxPoint x="330" y="330" />
            </Array>
          </mxGeometry>
        </mxCell>
        <mxCell id="h6leBs1KQF8J1EOXkiDZ-13" value="" style="image;aspect=fixed;html=1;points=[];align=center;fontSize=12;image=img/lib/azure2/general/Folder_Blank.svg;" parent="1" vertex="1">
          <mxGeometry x="170.5" y="390" width="69" height="56.00000000000001" as="geometry" />
        </mxCell>
        <mxCell id="h6leBs1KQF8J1EOXkiDZ-14" value="CRM" style="rounded=0;whiteSpace=wrap;html=1;fontSize=16;fillColor=none;strokeColor=none;" parent="1" vertex="1">
          <mxGeometry x="170.5" y="450" width="59.5" height="20" as="geometry" />
        </mxCell>
        <mxCell id="h6leBs1KQF8J1EOXkiDZ-21" style="edgeStyle=orthogonalEdgeStyle;rounded=0;orthogonalLoop=1;jettySize=auto;html=1;entryX=0;entryY=0.5;entryDx=0;entryDy=0;" parent="1" source="h6leBs1KQF8J1EOXkiDZ-15" target="h6leBs1KQF8J1EOXkiDZ-10" edge="1">
          <mxGeometry relative="1" as="geometry">
            <Array as="points">
              <mxPoint x="270" y="710" />
              <mxPoint x="270" y="710" />
            </Array>
          </mxGeometry>
        </mxCell>
        <mxCell id="h6leBs1KQF8J1EOXkiDZ-25" style="edgeStyle=orthogonalEdgeStyle;rounded=0;orthogonalLoop=1;jettySize=auto;html=1;entryX=0;entryY=0.5;entryDx=0;entryDy=0;" parent="1" source="h6leBs1KQF8J1EOXkiDZ-15" target="h6leBs1KQF8J1EOXkiDZ-9" edge="1">
          <mxGeometry relative="1" as="geometry">
            <Array as="points">
              <mxPoint x="330" y="710" />
              <mxPoint x="330" y="630" />
            </Array>
          </mxGeometry>
        </mxCell>
        <mxCell id="h6leBs1KQF8J1EOXkiDZ-15" value="" style="image;aspect=fixed;html=1;points=[];align=center;fontSize=12;image=img/lib/azure2/general/Folder_Blank.svg;" parent="1" vertex="1">
          <mxGeometry x="165.75" y="680" width="69" height="56.00000000000001" as="geometry" />
        </mxCell>
        <mxCell id="h6leBs1KQF8J1EOXkiDZ-16" value="ERP" style="rounded=0;whiteSpace=wrap;html=1;fontSize=16;fillColor=none;strokeColor=none;" parent="1" vertex="1">
          <mxGeometry x="165.75" y="740" width="59.5" height="20" as="geometry" />
        </mxCell>
        <mxCell id="h6leBs1KQF8J1EOXkiDZ-19" style="edgeStyle=orthogonalEdgeStyle;rounded=0;orthogonalLoop=1;jettySize=auto;html=1;entryX=0.002;entryY=0.566;entryDx=0;entryDy=0;entryPerimeter=0;" parent="1" source="h6leBs1KQF8J1EOXkiDZ-13" target="h6leBs1KQF8J1EOXkiDZ-8" edge="1">
          <mxGeometry relative="1" as="geometry">
            <Array as="points">
              <mxPoint x="330" y="418" />
              <mxPoint x="330" y="514" />
            </Array>
          </mxGeometry>
        </mxCell>
        <mxCell id="h6leBs1KQF8J1EOXkiDZ-23" style="edgeStyle=orthogonalEdgeStyle;rounded=0;orthogonalLoop=1;jettySize=auto;html=1;entryX=-0.001;entryY=0.6;entryDx=0;entryDy=0;entryPerimeter=0;" parent="1" edge="1">
          <mxGeometry relative="1" as="geometry">
            <mxPoint x="235.03" y="710.0044827586207" as="sourcePoint" />
            <mxPoint x="400" y="805.97" as="targetPoint" />
            <Array as="points">
              <mxPoint x="330.28" y="709.97" />
              <mxPoint x="330.28" y="805.97" />
            </Array>
          </mxGeometry>
        </mxCell>
        <mxCell id="irCyjuHKOvBO2fOeoZhY-1" value="" style="rounded=1;whiteSpace=wrap;html=1;fillStyle=hatch;fillColor=none;fontColor=#ffffff;strokeColor=light-dark(#FFB570, #c0b2a5);" parent="1" vertex="1">
          <mxGeometry x="800" y="270" width="320" height="650" as="geometry" />
        </mxCell>
        <mxCell id="irCyjuHKOvBO2fOeoZhY-2" value="Silver Layer" style="rounded=0;whiteSpace=wrap;html=1;fillColor=light-dark(#FFB570, #c0b2a5);fontColor=#000000;fontSize=20;" parent="1" vertex="1">
          <mxGeometry x="800" y="190" width="320" height="60" as="geometry" />
        </mxCell>
        <mxCell id="S751jmPFMlhyDLY0DJuu-13" style="rounded=0;orthogonalLoop=1;jettySize=auto;html=1;entryX=0;entryY=0.5;entryDx=0;entryDy=0;exitX=1;exitY=0.75;exitDx=0;exitDy=0;strokeWidth=4;" edge="1" parent="1" source="irCyjuHKOvBO2fOeoZhY-3" target="S751jmPFMlhyDLY0DJuu-4">
          <mxGeometry relative="1" as="geometry" />
        </mxCell>
        <mxCell id="irCyjuHKOvBO2fOeoZhY-3" value="&lt;font color=&quot;#ba0000&quot;&gt;crm_cust_info&lt;/font&gt;" style="rounded=0;whiteSpace=wrap;html=1;fillColor=light-dark(#FFB570, #c0b2a5);fontFamily=Verdana;fontSize=17;" parent="1" vertex="1">
          <mxGeometry x="820" y="300" width="280" height="60" as="geometry" />
        </mxCell>
        <mxCell id="S751jmPFMlhyDLY0DJuu-14" style="rounded=0;orthogonalLoop=1;jettySize=auto;html=1;entryX=0;entryY=0.5;entryDx=0;entryDy=0;strokeWidth=4;exitX=1;exitY=0.5;exitDx=0;exitDy=0;" edge="1" parent="1" source="irCyjuHKOvBO2fOeoZhY-4" target="S751jmPFMlhyDLY0DJuu-5">
          <mxGeometry relative="1" as="geometry" />
        </mxCell>
        <mxCell id="irCyjuHKOvBO2fOeoZhY-4" value="&lt;font color=&quot;#ba0000&quot;&gt;crm_prd_info&lt;/font&gt;" style="rounded=0;whiteSpace=wrap;html=1;fillColor=light-dark(#FFB570, #beb1a4);fontFamily=Verdana;fontSize=17;" parent="1" vertex="1">
          <mxGeometry x="820" y="390" width="280" height="60" as="geometry" />
        </mxCell>
        <mxCell id="S751jmPFMlhyDLY0DJuu-9" style="rounded=0;orthogonalLoop=1;jettySize=auto;html=1;entryX=0;entryY=0.5;entryDx=0;entryDy=0;exitX=1;exitY=0.5;exitDx=0;exitDy=0;strokeWidth=4;" edge="1" parent="1" source="irCyjuHKOvBO2fOeoZhY-5" target="S751jmPFMlhyDLY0DJuu-3">
          <mxGeometry relative="1" as="geometry" />
        </mxCell>
        <mxCell id="irCyjuHKOvBO2fOeoZhY-5" value="&lt;font color=&quot;#ba0000&quot;&gt;crm_sales_details&lt;/font&gt;" style="rounded=0;whiteSpace=wrap;html=1;fillColor=light-dark(#FFB570, #bbaea1);fontFamily=Verdana;fontSize=17;" parent="1" vertex="1">
          <mxGeometry x="820" y="480" width="280" height="60" as="geometry" />
        </mxCell>
        <mxCell id="S751jmPFMlhyDLY0DJuu-15" style="rounded=0;orthogonalLoop=1;jettySize=auto;html=1;entryX=0;entryY=0.5;entryDx=0;entryDy=0;strokeWidth=4;exitX=1;exitY=0.5;exitDx=0;exitDy=0;" edge="1" parent="1" source="irCyjuHKOvBO2fOeoZhY-6" target="S751jmPFMlhyDLY0DJuu-4">
          <mxGeometry relative="1" as="geometry" />
        </mxCell>
        <mxCell id="irCyjuHKOvBO2fOeoZhY-6" value="&lt;font color=&quot;#ba0000&quot;&gt;erp_cust_az12&lt;/font&gt;" style="rounded=0;whiteSpace=wrap;html=1;fillColor=light-dark(#FFB570, #b7ab9e);fontFamily=Verdana;fontSize=17;" parent="1" vertex="1">
          <mxGeometry x="820" y="600" width="280" height="60" as="geometry" />
        </mxCell>
        <mxCell id="S751jmPFMlhyDLY0DJuu-16" style="rounded=0;orthogonalLoop=1;jettySize=auto;html=1;entryX=0;entryY=0.5;entryDx=0;entryDy=0;strokeWidth=4;" edge="1" parent="1" source="irCyjuHKOvBO2fOeoZhY-7" target="S751jmPFMlhyDLY0DJuu-4">
          <mxGeometry relative="1" as="geometry" />
        </mxCell>
        <mxCell id="irCyjuHKOvBO2fOeoZhY-7" value="&lt;font color=&quot;#ba0000&quot;&gt;erp_loc_a101&lt;/font&gt;" style="rounded=0;whiteSpace=wrap;html=1;fillColor=light-dark(#FFB570, #b3a69a);fontFamily=Verdana;fontSize=17;" parent="1" vertex="1">
          <mxGeometry x="820" y="680" width="280" height="60" as="geometry" />
        </mxCell>
        <mxCell id="S751jmPFMlhyDLY0DJuu-17" style="rounded=0;orthogonalLoop=1;jettySize=auto;html=1;entryX=0;entryY=0.5;entryDx=0;entryDy=0;strokeWidth=4;" edge="1" parent="1" source="irCyjuHKOvBO2fOeoZhY-8" target="S751jmPFMlhyDLY0DJuu-5">
          <mxGeometry relative="1" as="geometry" />
        </mxCell>
        <mxCell id="irCyjuHKOvBO2fOeoZhY-8" value="&lt;font color=&quot;#ba0000&quot;&gt;erp_px_cat_g1v2&lt;/font&gt;" style="rounded=0;whiteSpace=wrap;html=1;fillColor=light-dark(#FFB570, #ada195);fontFamily=Verdana;fontSize=17;" parent="1" vertex="1">
          <mxGeometry x="820" y="760" width="280" height="60" as="geometry" />
        </mxCell>
        <mxCell id="S751jmPFMlhyDLY0DJuu-1" value="" style="rounded=1;whiteSpace=wrap;html=1;fillStyle=hatch;fillColor=none;fontColor=#ffffff;strokeColor=light-dark(#FFB570, #dfd93a);" vertex="1" parent="1">
          <mxGeometry x="1280" y="265" width="320" height="650" as="geometry" />
        </mxCell>
        <mxCell id="S751jmPFMlhyDLY0DJuu-2" value="Gold Layer" style="rounded=0;whiteSpace=wrap;html=1;fillColor=light-dark(#FFB570,#FFD966);fontColor=#000000;fontSize=20;strokeColor=light-dark(#FFB570,#FFD966);" vertex="1" parent="1">
          <mxGeometry x="1280" y="185" width="320" height="60" as="geometry" />
        </mxCell>
        <mxCell id="S751jmPFMlhyDLY0DJuu-3" value="&lt;font color=&quot;#ba0000&quot;&gt;fact_sales&lt;/font&gt;" style="rounded=0;whiteSpace=wrap;html=1;fillColor=light-dark(#FFB570,#FFD966);fontFamily=Verdana;fontSize=17;strokeColor=light-dark(#FFB570, #dfd93a);" vertex="1" parent="1">
          <mxGeometry x="1305" y="405" width="280" height="60" as="geometry" />
        </mxCell>
        <mxCell id="S751jmPFMlhyDLY0DJuu-4" value="&lt;font color=&quot;#ba0000&quot;&gt;dim_customers&lt;/font&gt;" style="rounded=0;whiteSpace=wrap;html=1;fillColor=light-dark(#FFB570,#FFD966);fontFamily=Verdana;fontSize=17;strokeColor=light-dark(#FFB570, #dfd93a);" vertex="1" parent="1">
          <mxGeometry x="1315" y="590" width="280" height="60" as="geometry" />
        </mxCell>
        <mxCell id="S751jmPFMlhyDLY0DJuu-5" value="&lt;font color=&quot;#ba0000&quot;&gt;dim_products&lt;/font&gt;" style="rounded=0;whiteSpace=wrap;html=1;fillColor=light-dark(#FFB570,#FFD966);fontFamily=Verdana;fontSize=17;strokeColor=light-dark(#FFB570, #dfd93a);" vertex="1" parent="1">
          <mxGeometry x="1310" y="760" width="280" height="60" as="geometry" />
        </mxCell>
        <mxCell id="S751jmPFMlhyDLY0DJuu-12" value="" style="endArrow=classic;html=1;rounded=0;" edge="1" parent="1">
          <mxGeometry width="50" height="50" relative="1" as="geometry">
            <mxPoint x="810" y="485" as="sourcePoint" />
            <mxPoint x="860" y="435" as="targetPoint" />
          </mxGeometry>
        </mxCell>
      </root>
    </mxGraphModel>
  </diagram>
</mxfile>
